<svg id="Layer_1" enable-background="new 0 0 511 511" height="512" viewBox="0 0 511 511" width="512" xmlns="http://www.w3.org/2000/svg"><g><path d="m127.5 71.5h288v384h-288z" fill="#00adeb"/><path d="m367.5 411.5v44h36l4-4z" fill="#006dee"/><path d="m127.5 439.5 16 16h240v-352h-256z" fill="#006dee"/><path d="m79.5 423.5v-304h288v384h-208z" fill="#fff"/><g fill="#c6fff6"><path d="m367.5 411.5-49.186-49.186c10.83-15.542 17.186-34.435 17.186-54.814 0-53.019-42.981-96-96-96s-96 42.981-96 96 42.981 96 96 96c20.38 0 39.272-6.356 54.814-17.186l73.186 73.186z"/><path d="m159.5 487.5h208v16h-208z"/><path d="m343.5 119.5h24v384h-24z"/></g><path d="m159.5 503.5v-80h-80" fill="#fee95d"/><path d="m103.5 423.5h-24l80 80v-24z" fill="#ffc277"/><g><path d="m316.529 356.446h33.941v130.108h-33.941z" fill="#00adeb" transform="matrix(.707 -.707 .707 .707 -200.366 359.275)"/><path d="m319.015 362.446h16.971v130.108h-16.971z" fill="#006dee" transform="matrix(.707 -.707 .707 .707 -206.366 356.789)"/><path d="m284.529 369.701h33.941v39.598h-33.941z" fill="#fee95d" transform="matrix(.707 -.707 .707 .707 -187.111 327.275)"/><path d="m299.5 363.5-24 24 14.282 14.282c9.163-6.739 17.261-14.837 24-24z" fill="#ffc277"/><path d="m287.015 375.701h16.971v39.598h-16.971z" fill="#ffc277" transform="matrix(.707 -.707 .707 .707 -193.111 324.789)"/><circle cx="223.5" cy="311.5" fill="#00adeb" r="96"/><path d="m223.5 215.5c-2.695 0-5.362.117-8 .334 49.276 4.066 88 45.341 88 95.666s-38.724 91.6-88 95.666c2.638.218 5.305.334 8 .334 53.019 0 96-42.981 96-96s-42.981-96-96-96z" fill="#006dee"/><circle cx="223.5" cy="311.5" fill="#c6fff6" r="64"/><path d="m223.5 247.5c-2.711 0-5.377.188-8 .516 31.568 3.939 56 30.85 56 63.484 0 32.635-24.432 59.545-56 63.484 2.623.327 5.289.516 8 .516 35.346 0 64-28.654 64-64s-28.654-64-64-64z" fill="#8ad8f6"/></g><circle cx="119.5" cy="23.5" fill="#fee95d" r="16"/><circle cx="415.5" cy="87.5" fill="#fee95d" r="16"/><g><path d="m408 448h-13.394l-82.712-82.712c9.58-15.684 15.106-34.103 15.106-53.788 0-57.07-46.43-103.5-103.5-103.5s-103.5 46.43-103.5 103.5 46.43 103.5 103.5 103.5c19.685 0 38.104-5.526 53.788-15.105l82.712 82.711v13.394h-193v-80h-80v-289h273v272.5h15v-287.5h-240v-33h248.5v-15h-263.5v48h-48v314.606l84.394 84.394h218.606v-28.394l19.606-19.606h28.394v-335.5h-15zm-256 37.394-54.394-54.394h54.394zm-17-173.894c0-48.799 39.701-88.5 88.5-88.5s88.5 39.701 88.5 88.5-39.701 88.5-88.5 88.5-88.5-39.701-88.5-88.5zm168.041 66.147 13.853 13.853-13.394 13.394-13.853-13.853c4.86-4.049 9.345-8.534 13.394-13.394zm64.459 91.247-53.394-53.394 13.394-13.394 53.394 53.394z"/><path d="m223.5 240c-39.425 0-71.5 32.075-71.5 71.5s32.075 71.5 71.5 71.5 71.5-32.075 71.5-71.5-32.075-71.5-71.5-71.5zm0 128c-31.154 0-56.5-25.346-56.5-56.5s25.346-56.5 56.5-56.5 56.5 25.346 56.5 56.5-25.346 56.5-56.5 56.5z"/><path d="m224.601 272.025c-6.478-.291-12.642 2.002-17.33 6.479-4.621 4.413-7.271 10.608-7.271 16.996h15c0-2.344.935-4.528 2.631-6.148 1.695-1.619 3.933-2.448 6.281-2.342 4.259.196 7.883 3.82 8.079 8.079.133 2.886-1.183 5.618-3.52 7.308-7.809 5.645-12.471 15.03-12.471 25.103h15c0-5.273 2.34-10.114 6.26-12.948 6.449-4.664 10.08-12.197 9.714-20.152-.551-11.995-10.379-21.823-22.373-22.375z"/><path d="m216 335.5h15v16h-15z"/><path d="m183.5 168h16v15h-16z"/><path d="m215.5 168h16v15h-16z"/><path d="m247.5 168h16v15h-16z"/><path d="m119.5 47c12.958 0 23.5-10.542 23.5-23.5s-10.542-23.5-23.5-23.5-23.5 10.542-23.5 23.5 10.542 23.5 23.5 23.5zm0-32c4.687 0 8.5 3.813 8.5 8.5s-3.813 8.5-8.5 8.5-8.5-3.813-8.5-8.5 3.813-8.5 8.5-8.5z"/><path d="m415.5 64c-12.958 0-23.5 10.542-23.5 23.5s10.542 23.5 23.5 23.5 23.5-10.542 23.5-23.5-10.542-23.5-23.5-23.5zm0 32c-4.687 0-8.5-3.813-8.5-8.5s3.813-8.5 8.5-8.5 8.5 3.813 8.5 8.5-3.813 8.5-8.5 8.5z"/><path d="m55 55.5h-15v16.5h-16.5v15h16.5v16.5h15v-16.5h16.5v-15h-16.5z"/><path d="m487.5 152h-16.5v-16.5h-15v16.5h-16.5v15h16.5v16.5h15v-16.5h16.5z"/></g></g></svg>